<svg width="93" height="108" viewBox="0 0 93 108" fill="none" xmlns="http://www.w3.org/2000/svg">
<path d="M16.6661 84.8579H20.1983C22.417 84.8579 24.1393 82.8629 24.1393 80.293V74.7814C30.5616 75.2209 39.3193 75.4914 46.5006 75.4914C53.6527 75.4914 62.4103 75.2209 68.8326 74.7814V80.293C68.8326 82.8629 70.555 84.8579 72.8028 84.8579H76.3058C78.5536 84.8579 80.276 82.8629 80.276 80.293V71.4C81.2393 70.0812 81.7648 68.3229 81.7648 66.1588V60.2076C81.7648 54.2563 80.8598 50.9087 78.0866 46.8511L75.4885 43.0639C74.4083 36.9774 72.4817 30.5866 71.4599 28.0843C69.8252 24.0943 66.6724 21.7273 62.6439 21.0848C60.5128 20.7467 54.2657 20.5776 46.5006 20.5776C38.7354 20.5776 32.4591 20.7805 30.3572 21.0848C26.3287 21.6597 23.1468 24.0943 21.5412 28.0843C20.5195 30.5866 18.5928 36.9774 17.5127 43.0639L14.9146 46.8511C12.1413 50.9087 11.2363 54.2563 11.2363 60.2076V66.1588C11.2363 68.3229 11.7618 70.0812 12.7251 71.4V80.293C12.7251 82.8629 14.4475 84.8579 16.6661 84.8579ZM46.5006 70.0136C36.4876 70.0136 24.0517 69.4726 19.3226 68.8301C16.812 68.492 15.8779 67.0042 15.8779 64.4343V59.9032C15.8779 55.3383 16.6369 53.1743 18.6804 50.0296L21.8331 45.2618C22.5629 40.7307 24.4604 33.6974 25.6573 30.688C26.6498 28.2872 28.5181 26.9008 31.0579 26.5289C33.0721 26.2246 38.7646 25.9541 46.5006 25.9541C54.2365 25.9541 60.0166 26.2584 61.8849 26.5289C64.5122 26.9008 66.3221 28.321 67.3146 30.7218C68.5699 33.6636 70.409 40.6631 71.1388 45.2618L74.2916 50.0296C76.3642 53.1743 77.094 55.3383 77.094 59.9032V64.4343C77.094 67.0042 76.1599 68.492 73.6785 68.8301C68.9494 69.4726 56.5135 70.0136 46.5006 70.0136ZM25.8033 41.8804C25.5113 43.2668 26.0368 43.9092 27.2921 43.8416C31.5833 43.5373 36.9839 43.233 46.5006 43.233C56.0172 43.233 61.4178 43.5373 65.6799 43.8416C66.9643 43.9092 67.4606 43.2668 67.1979 41.8804C66.5556 38.6343 65.3587 34.3737 64.5122 32.683C63.6948 30.9923 62.7606 30.2822 61.0383 30.0117C59.0532 29.7074 54.2949 29.4707 46.5006 29.4707C38.7062 29.4707 33.9187 29.7074 31.9628 30.0117C30.2405 30.2822 29.2771 30.9923 28.4889 32.683C27.6424 34.3737 26.4455 38.6343 25.8033 41.8804ZM25.3654 65.6516C28.1678 65.6516 30.2697 63.217 30.2697 60.0047C30.2697 56.7585 28.1678 54.3239 25.3654 54.3239C22.5921 54.3239 20.4903 56.7585 20.4903 60.0047C20.4903 63.217 22.5921 65.6516 25.3654 65.6516ZM67.6065 65.6516C70.409 65.6516 72.5108 63.217 72.5108 60.0047C72.5108 56.7585 70.409 54.3239 67.6065 54.3239C64.8333 54.3239 62.7314 56.7585 62.7314 60.0047C62.7314 63.217 64.8333 65.6516 67.6065 65.6516ZM38.6187 64.2314H54.3825C56.4551 64.2314 57.9147 62.5407 57.9147 60.1399C57.9147 57.7391 56.4551 56.0484 54.3825 56.0484H38.6187C36.5168 56.0484 35.0572 57.7391 35.0572 60.1399C35.0572 62.5407 36.5168 64.2314 38.6187 64.2314Z" fill="#1C1C1E"/>
</svg>
