<svg width="18" height="18" viewBox="0 0 18 18" fill="none" xmlns="http://www.w3.org/2000/svg">
<path d="M10.7121 11.213V12.343H13.362C15.1362 12.343 16.221 11.2921 16.221 9.85697C16.221 8.65914 15.5373 7.69298 14.4129 7.24662C14.4186 4.69277 12.5767 2.85083 10.2093 2.85083C8.70633 2.85083 7.57631 3.6249 6.87005 4.64757C5.51967 4.31421 3.92634 5.33688 3.86984 6.93021C2.57596 7.15057 1.7793 8.22409 1.7793 9.59141C1.7793 11.1113 2.93757 12.343 4.81906 12.343H7.26556V11.213H4.81906C3.58733 11.213 2.92062 10.4785 2.92062 9.56881C2.92062 8.51224 3.61558 7.77208 4.76821 7.77208C4.85296 7.77208 4.88686 7.72688 4.88121 7.64777C4.84731 5.96404 6.05078 5.42163 7.26556 5.77759C7.33901 5.79454 7.38421 5.78324 7.41811 5.72109C7.96052 4.73232 8.80239 3.9752 10.2036 3.9752C11.9777 3.9752 13.2434 5.38208 13.3281 7.02626C13.3451 7.32572 13.3225 7.65907 13.2999 7.93028C13.2886 8.00938 13.3225 8.05458 13.3959 8.06588C14.4299 8.26364 15.0797 8.86255 15.0797 9.80612C15.0797 10.631 14.5033 11.213 13.3394 11.213H10.7121ZM8.98884 15.1681C9.28265 15.1681 9.51995 14.9308 9.51995 14.6483V9.44451L9.46345 8.43879L9.82506 8.8569L10.6104 9.64791C10.7065 9.74962 10.8364 9.80612 10.9664 9.80612C11.2263 9.80612 11.441 9.61401 11.441 9.34846C11.441 9.21286 11.3901 9.1055 11.2884 9.0151L9.39 7.22967C9.24874 7.09971 9.13009 7.04886 8.98884 7.04886C8.85324 7.04886 8.72893 7.09971 8.58768 7.22967L6.68924 9.0151C6.58754 9.1055 6.54234 9.21286 6.54234 9.34846C6.54234 9.61401 6.7514 9.80612 7.0113 9.80612C7.14125 9.80612 7.27121 9.74962 7.36726 9.64791L8.15262 8.8569L8.51988 8.43879L8.45773 9.44451V14.6483C8.45773 14.9308 8.70068 15.1681 8.98884 15.1681Z" fill="#00A3FF"/>
</svg>
