<svg width="46" height="41" viewBox="0 0 46 41" fill="none" xmlns="http://www.w3.org/2000/svg">
<path d="M28.4531 27.4835V31.0829H36.8936C42.5446 31.0829 46 27.7355 46 23.1643C46 19.3489 43.8224 16.2715 40.241 14.8497C40.259 6.71512 34.392 0.848145 26.8513 0.848145C22.0642 0.848145 18.4648 3.31372 16.2152 6.57115C11.9139 5.50933 6.83881 8.76677 6.65884 13.8419C2.53756 14.5438 0 17.9632 0 22.3184C0 27.1596 3.68936 31.0829 9.68232 31.0829H17.475V27.4835H9.68232C5.759 27.4835 3.63537 25.1439 3.63537 22.2464C3.63537 18.881 5.84898 16.5234 9.52034 16.5234C9.7903 16.5234 9.89828 16.3794 9.88028 16.1275C9.7723 10.7644 13.6056 9.03672 17.475 10.1705C17.7089 10.2245 17.8529 10.1885 17.9609 9.99055C19.6886 6.8411 22.3701 4.42952 26.8333 4.42952C32.4844 4.42952 36.5156 8.91074 36.7856 14.1478C36.8396 15.1017 36.7676 16.1635 36.6956 17.0273C36.6596 17.2793 36.7676 17.4233 37.0016 17.4593C40.295 18.0891 42.3646 19.9968 42.3646 23.0023C42.3646 25.6298 40.529 27.4835 36.8216 27.4835H28.4531ZM22.964 40.0813C23.8998 40.0813 24.6557 39.3254 24.6557 38.4256V21.8505L24.4757 18.647L25.6275 19.9788L28.1291 22.4984C28.4351 22.8223 28.849 23.0023 29.2629 23.0023C30.0908 23.0023 30.7746 22.3904 30.7746 21.5445C30.7746 21.1126 30.6127 20.7707 30.2887 20.4827L24.2418 14.7957C23.7919 14.3818 23.4139 14.2198 22.964 14.2198C22.5321 14.2198 22.1362 14.3818 21.6862 14.7957L15.6393 20.4827C15.3153 20.7707 15.1714 21.1126 15.1714 21.5445C15.1714 22.3904 15.8372 23.0023 16.6651 23.0023C17.079 23.0023 17.493 22.8223 17.7989 22.4984L20.3005 19.9788L21.4703 18.647L21.2723 21.8505V38.4256C21.2723 39.3254 22.0462 40.0813 22.964 40.0813Z" fill="#00A3FF"/>
</svg>
