<svg width="42" height="42" viewBox="0 0 42 42" fill="none" xmlns="http://www.w3.org/2000/svg">
<path fill-rule="evenodd" clip-rule="evenodd" d="M21 5.25C16.7223 5.25 16.1868 5.26785 14.5068 5.3445C12.8299 5.42115 11.6844 5.68785 10.6827 6.0774C9.6327 6.4722 8.68035 7.0917 7.89285 7.8939C7.09193 8.68049 6.47205 9.63217 6.07635 10.6827C5.6889 11.6844 5.42115 12.831 5.3445 14.5078C5.2689 16.1868 5.25 16.7212 5.25 21C5.25 25.2787 5.26785 25.8132 5.3445 27.4932C5.42115 29.17 5.68785 30.3156 6.0774 31.3173C6.4722 32.3673 7.0917 33.3196 7.8939 34.1071C8.68051 34.908 9.63218 35.5279 10.6827 35.9236C11.6844 36.3121 12.8299 36.5788 14.5068 36.6555C16.1868 36.7321 16.7223 36.75 21 36.75C25.2777 36.75 25.8132 36.7321 27.4932 36.6555C29.17 36.5788 30.3156 36.3121 31.3173 35.9226C32.3673 35.5278 33.3196 34.9083 34.1071 34.1061C34.9081 33.3195 35.5279 32.3678 35.9236 31.3173C36.3121 30.3156 36.5788 29.17 36.6555 27.4932C36.7321 25.8132 36.75 25.2777 36.75 21C36.75 16.7223 36.7321 16.1868 36.6555 14.5068C36.5788 12.8299 36.3121 11.6844 35.9226 10.6827C35.5272 9.63172 34.9073 8.67964 34.1061 7.89285C33.3195 7.09193 32.3678 6.47205 31.3173 6.07635C30.3156 5.6889 29.169 5.42115 27.4921 5.3445C25.8132 5.2689 25.2787 5.25 21 5.25ZM21 8.08815C25.2052 8.08815 25.704 8.1039 27.3651 8.1795C28.9002 8.24985 29.7339 8.505 30.2893 8.72235C31.0243 9.0069 31.5493 9.3492 32.1006 9.8994C32.6518 10.4506 32.9931 10.9756 33.2776 11.7106C33.4939 12.2661 33.7501 13.0998 33.8205 14.6349C33.8961 16.296 33.9118 16.7947 33.9118 21C33.9118 25.2052 33.8961 25.704 33.8205 27.3651C33.7501 28.9002 33.495 29.7339 33.2776 30.2893C33.0256 30.9735 32.6234 31.5924 32.1006 32.1006C31.5925 32.6235 30.9735 33.0257 30.2893 33.2776C29.7339 33.4939 28.9002 33.7501 27.3651 33.8205C25.704 33.8961 25.2063 33.9118 21 33.9118C16.7937 33.9118 16.296 33.8961 14.6349 33.8205C13.0998 33.7501 12.2661 33.495 11.7106 33.2776C11.0265 33.0256 10.4076 32.6234 9.8994 32.1006C9.37669 31.5923 8.97448 30.9734 8.72235 30.2893C8.50605 29.7339 8.24985 28.9002 8.1795 27.3651C8.1039 25.704 8.08815 25.2052 8.08815 21C8.08815 16.7947 8.1039 16.296 8.1795 14.6349C8.24985 13.0998 8.505 12.2661 8.72235 11.7106C9.0069 10.9756 9.3492 10.4506 9.8994 9.8994C10.4075 9.37655 11.0265 8.97432 11.7106 8.72235C12.2661 8.50605 13.0998 8.24985 14.6349 8.1795C16.296 8.1039 16.7947 8.08815 21 8.08815Z" fill="currentColor"/>
<path fill-rule="evenodd" clip-rule="evenodd" d="M21 26.2552C20.3099 26.2552 19.6265 26.1193 18.9889 25.8552C18.3513 25.5911 17.772 25.204 17.284 24.716C16.796 24.228 16.4089 23.6487 16.1448 23.0111C15.8807 22.3735 15.7448 21.6901 15.7448 21C15.7448 20.3099 15.8807 19.6265 16.1448 18.9889C16.4089 18.3513 16.796 17.772 17.284 17.284C17.772 16.796 18.3513 16.4089 18.9889 16.1448C19.6265 15.8807 20.3099 15.7447 21 15.7447C22.3938 15.7447 23.7305 16.2984 24.7161 17.284C25.7016 18.2695 26.2553 19.6062 26.2553 21C26.2553 22.3938 25.7016 23.7305 24.7161 24.716C23.7305 25.7016 22.3938 26.2552 21 26.2552ZM21 12.9045C18.853 12.9045 16.7939 13.7574 15.2757 15.2756C13.7575 16.7938 12.9045 18.8529 12.9045 21C12.9045 23.1471 13.7575 25.2062 15.2757 26.7244C16.7939 28.2426 18.853 29.0955 21 29.0955C23.1471 29.0955 25.2062 28.2426 26.7244 26.7244C28.2426 25.2062 29.0955 23.1471 29.0955 21C29.0955 18.8529 28.2426 16.7938 26.7244 15.2756C25.2062 13.7574 23.1471 12.9045 21 12.9045ZM31.4507 12.7575C31.4507 13.265 31.2491 13.7518 30.8902 14.1106C30.5313 14.4695 30.0446 14.6711 29.5371 14.6711C29.0295 14.6711 28.5428 14.4695 28.1839 14.1106C27.8251 13.7518 27.6234 13.265 27.6234 12.7575C27.6234 12.25 27.8251 11.7632 28.1839 11.4044C28.5428 11.0455 29.0295 10.8439 29.5371 10.8439C30.0446 10.8439 30.5313 11.0455 30.8902 11.4044C31.2491 11.7632 31.4507 12.25 31.4507 12.7575Z" fill="black"/>
</svg>
