<svg width="48" height="48" viewBox="0 0 48 48" fill="none" xmlns="http://www.w3.org/2000/svg">
<g clip-path="url(#clip0_739_42)">
<path d="M48 0H0V48H48V0Z" fill="url(#paint0_radial_739_42)"/>
<path d="M48 0H0V48H48V0Z" fill="url(#paint1_radial_739_42)"/>
<path d="M24 10.4819C28.3735 10.4819 28.9699 10.4819 30.759 10.4819C32.3494 10.4819 33.1446 10.8795 33.741 11.0783C34.5361 11.4759 35.1325 11.6747 35.7289 12.2711C36.3253 12.8675 36.7229 13.4639 36.9217 14.259C37.1205 14.8554 37.3193 15.6506 37.5181 17.241C37.5181 19.0301 37.5181 19.4277 37.5181 24C37.5181 28.5723 37.5181 28.9699 37.5181 30.759C37.5181 32.3494 37.1205 33.1446 36.9217 33.741C36.5241 34.5361 36.3253 35.1325 35.7289 35.7289C35.1325 36.3253 34.5361 36.7229 33.741 36.9217C33.1446 37.1205 32.3494 37.3193 30.759 37.5181C28.9699 37.5181 28.5723 37.5181 24 37.5181C19.4277 37.5181 19.0301 37.5181 17.241 37.5181C15.6506 37.5181 14.8554 37.1205 14.259 36.9217C13.4639 36.5241 12.8675 36.3253 12.2711 35.7289C11.6747 35.1325 11.2771 34.5361 11.0783 33.741C10.8795 33.1446 10.6807 32.3494 10.4819 30.759C10.4819 28.9699 10.4819 28.5723 10.4819 24C10.4819 19.4277 10.4819 19.0301 10.4819 17.241C10.4819 15.6506 10.8795 14.8554 11.0783 14.259C11.4759 13.4639 11.6747 12.8675 12.2711 12.2711C12.8675 11.6747 13.4639 11.2771 14.259 11.0783C14.8554 10.8795 15.6506 10.6807 17.241 10.4819C19.0301 10.4819 19.6265 10.4819 24 10.4819ZM24 7.5C19.4277 7.5 19.0301 7.5 17.241 7.5C15.4518 7.5 14.259 7.89759 13.2651 8.29518C12.2711 8.69277 11.2771 9.28916 10.2831 10.2831C9.28916 11.2771 8.89157 12.0723 8.29518 13.2651C7.89759 14.259 7.6988 15.4518 7.5 17.241C7.5 19.0301 7.5 19.6265 7.5 24C7.5 28.5723 7.5 28.9699 7.5 30.759C7.5 32.5482 7.89759 33.741 8.29518 34.7349C8.69277 35.7289 9.28916 36.7229 10.2831 37.7169C11.2771 38.7108 12.0723 39.1084 13.2651 39.7048C14.259 40.1024 15.4518 40.3012 17.241 40.5C19.0301 40.5 19.6265 40.5 24 40.5C28.3735 40.5 28.9699 40.5 30.759 40.5C32.5482 40.5 33.741 40.1024 34.7349 39.7048C35.7289 39.3072 36.7229 38.7108 37.7169 37.7169C38.7108 36.7229 39.1084 35.9277 39.7048 34.7349C40.1024 33.741 40.3012 32.5482 40.5 30.759C40.5 28.9699 40.5 28.3735 40.5 24C40.5 19.6265 40.5 19.0301 40.5 17.241C40.5 15.4518 40.1024 14.259 39.7048 13.2651C39.3072 12.2711 38.7108 11.2771 37.7169 10.2831C36.7229 9.28916 35.9277 8.89157 34.7349 8.29518C33.741 7.89759 32.5482 7.6988 30.759 7.5C28.9699 7.5 28.5723 7.5 24 7.5Z" fill="white"/>
<path d="M24 15.4518C19.2289 15.4518 15.4518 19.2289 15.4518 24C15.4518 28.7711 19.2289 32.5482 24 32.5482C28.7711 32.5482 32.5482 28.7711 32.5482 24C32.5482 19.2289 28.7711 15.4518 24 15.4518ZM24 29.5663C21.0181 29.5663 18.4337 27.1807 18.4337 24C18.4337 21.0181 20.8193 18.4337 24 18.4337C26.9819 18.4337 29.5663 20.8193 29.5663 24C29.5663 26.9819 26.9819 29.5663 24 29.5663Z" fill="white"/>
<path d="M32.747 17.241C33.8449 17.241 34.7349 16.3509 34.7349 15.253C34.7349 14.1551 33.8449 13.2651 32.747 13.2651C31.6491 13.2651 30.759 14.1551 30.759 15.253C30.759 16.3509 31.6491 17.241 32.747 17.241Z" fill="white"/>
</g>
<rect x="0.5" y="0.5" width="47" height="47" rx="7.5" stroke="black" stroke-opacity="0.1"/>
<defs>
<radialGradient id="paint0_radial_739_42" cx="0" cy="0" r="1" gradientUnits="userSpaceOnUse" gradientTransform="translate(17 50) rotate(-81.5289) scale(47.5184)">
<stop stop-color="#FFDD55"/>
<stop offset="0.1" stop-color="#FFDD55"/>
<stop offset="0.517936" stop-color="#FF442C"/>
<stop offset="1" stop-color="#FF1ED2"/>
</radialGradient>
<radialGradient id="paint1_radial_739_42" cx="0" cy="0" r="1" gradientUnits="userSpaceOnUse" gradientTransform="translate(10 -3) rotate(77.1957) scale(22.561 62.6911)">
<stop offset="0.096473" stop-color="#7000C9"/>
<stop offset="0.408416" stop-color="#9A00E2" stop-opacity="0.723958"/>
<stop offset="0.975495" stop-color="#AD00FF" stop-opacity="0"/>
</radialGradient>
<clipPath id="clip0_739_42">
<rect width="48" height="48" rx="8" fill="white"/>
</clipPath>
</defs>
</svg>
